<?xml version="1.0" encoding="iso-8859-1"?>
<!-- Generator: Adobe Illustrator 19.0.0, SVG Export Plug-In . SVG Version: 6.00 Build 0)  -->
<svg version="1.1" id="Capa_1" xmlns="http://www.w3.org/2000/svg" xmlns:xlink="http://www.w3.org/1999/xlink" x="0px" y="0px"
	 viewBox="0 0 512 512" style="enable-background:new 0 0 512 512;" xml:space="preserve">
<g>
	<g>
		<g>
			<path d="M443.733,247.467v-153.6c0-0.187-0.094-0.343-0.106-0.527c-0.112-2.057-0.957-4.006-2.384-5.493l-0.012-0.016
				L355.903,2.503l-0.016-0.012c-0.713-0.69-1.543-1.25-2.451-1.652c-0.245-0.115-0.499-0.18-0.756-0.27
				c-0.749-0.266-1.533-0.425-2.327-0.47C350.183,0.089,350.04,0,349.867,0H102.4C83.558,0.022,68.288,15.291,68.267,34.133V153.6
				c-18.842,0.021-34.112,15.291-34.133,34.133v290.133c0.022,18.842,15.291,34.112,34.133,34.133h375.467
				c18.842-0.022,34.112-15.291,34.133-34.133V281.6C477.845,262.758,462.576,247.488,443.733,247.467z M358.4,29.133l56.2,56.2
				h-39.133c-9.422-0.009-17.057-7.645-17.067-17.067V29.133z M68.267,494.933c-9.422-0.009-17.057-7.645-17.067-17.067V187.733
				c0.009-9.422,7.645-17.057,17.067-17.067h88.663c5.724-0.001,11.067,2.865,14.234,7.633l18.966,28.454
				c6.338,9.438,16.957,15.103,28.325,15.113h157.013c9.422,0.009,17.057,7.645,17.067,17.067v238.933
				c0.034,6.01,1.674,11.902,4.748,17.067H68.267z M375.467,204.8H218.454c-5.678-0.009-10.981-2.838-14.15-7.55l-18.942-28.417
				c-6.328-9.52-17.002-15.238-28.433-15.233H85.333V34.133c0.009-9.422,7.645-17.057,17.067-17.067h238.933v51.2
				c0.022,18.842,15.291,34.112,34.133,34.133h51.2v341.333c-0.009,9.422-7.645,17.057-17.067,17.067V238.933
				C409.578,220.091,394.309,204.822,375.467,204.8z M460.8,477.867c-0.009,9.422-7.645,17.057-17.067,17.067h-17.067
				c-9.422-0.009-17.057-7.645-17.067-17.067c18.842-0.022,34.112-15.291,34.133-34.133v-179.2
				c9.422,0.009,17.057,7.645,17.067,17.067V477.867z"/>
			<path d="M281.6,298.667c-0.036-32.975-26.758-59.697-59.733-59.733c-32.974,0.037-59.696,26.759-59.733,59.733v33.029
				c-24.76,24.252-32.375,61.08-19.264,93.163c13.111,32.083,44.339,53.037,78.997,53.008c34.659,0.029,65.887-20.925,78.998-53.008
				s5.496-68.911-19.264-93.163V298.667z M179.2,298.667c0.028-23.553,19.114-42.639,42.667-42.667
				c23.547,0.041,42.625,19.12,42.667,42.667v20.079c-26.362-15.394-58.972-15.394-85.333,0V298.667z M290.133,392.533
				c0,37.703-30.564,68.267-68.267,68.267S153.6,430.236,153.6,392.533c0.043-37.685,30.582-68.224,68.267-68.267
				C259.569,324.267,290.133,354.831,290.133,392.533z"/>
			<path d="M221.867,349.739c-17.188,0-31.695,12.781-33.861,29.832c-2.166,17.051,8.685,33.053,25.328,37.35V435.2
				c0,4.713,3.82,8.533,8.533,8.533s8.533-3.82,8.533-8.533v-18.278c16.643-4.297,27.494-20.299,25.328-37.35
				C253.562,362.52,239.055,349.739,221.867,349.739z M221.867,401.067c-9.426,0-17.067-7.641-17.067-17.067
				c0.009-9.422,7.645-17.057,17.067-17.067c9.426,0,17.067,7.641,17.067,17.067S231.292,401.067,221.867,401.067z"/>
			<path d="M307.2,68.267H119.467c-4.713,0-8.533,3.82-8.533,8.533s3.82,8.533,8.533,8.533H307.2c4.713,0,8.533-3.82,8.533-8.533
				S311.913,68.267,307.2,68.267z"/>
			<path d="M307.2,102.4H119.467c-4.713,0-8.533,3.82-8.533,8.533s3.82,8.533,8.533,8.533H307.2c4.713,0,8.533-3.82,8.533-8.533
				S311.913,102.4,307.2,102.4z"/>
			<path d="M307.2,136.533H204.8c-4.713,0-8.533,3.82-8.533,8.533s3.82,8.533,8.533,8.533h102.4c4.713,0,8.533-3.821,8.533-8.533
				S311.913,136.533,307.2,136.533z"/>
			<path d="M307.2,170.667h-85.333c-4.713,0-8.533,3.82-8.533,8.533s3.82,8.533,8.533,8.533H307.2c4.713,0,8.533-3.82,8.533-8.533
				S311.913,170.667,307.2,170.667z"/>
		</g>
	</g>
</g>
<g>
</g>
<g>
</g>
<g>
</g>
<g>
</g>
<g>
</g>
<g>
</g>
<g>
</g>
<g>
</g>
<g>
</g>
<g>
</g>
<g>
</g>
<g>
</g>
<g>
</g>
<g>
</g>
<g>
</g>
</svg>
