<?xml version="1.0" encoding="iso-8859-1"?>
<!-- Generator: Adobe Illustrator 19.0.0, SVG Export Plug-In . SVG Version: 6.00 Build 0)  -->
<svg version="1.1" id="Capa_1" xmlns="http://www.w3.org/2000/svg" xmlns:xlink="http://www.w3.org/1999/xlink" x="0px" y="0px"
	 viewBox="0 0 512 512" style="enable-background:new 0 0 512 512;" xml:space="preserve">
<g>
	<g>
		<path d="M181.333,336.917V181.333H160v160c0.02,2.84,1.172,5.554,3.2,7.541l113.067,113.131l15.061-15.072L181.333,336.917z"/>
	</g>
</g>
<g>
	<g>
		<rect x="170.667" y="330.667" width="160" height="21.333"/>
	</g>
</g>
<g>
	<g>
		<path d="M458.667,0H53.333C23.893,0.035,0.035,23.893,0,53.333v160h21.333v-160c0-17.673,14.327-32,32-32h405.333
			c17.673,0,32,14.327,32,32v405.333c0,17.673-14.327,32-32,32H288V512h170.667c29.441-0.035,53.298-23.893,53.333-53.333V53.333
			C511.965,23.893,488.107,0.035,458.667,0z"/>
	</g>
</g>
<g>
	<g>
		<rect x="42.667" y="85.333" width="426.667" height="21.333"/>
	</g>
</g>
<g>
	<g>
		<rect x="53.333" y="42.667" width="21.333" height="21.333"/>
	</g>
</g>
<g>
	<g>
		<rect x="96" y="42.667" width="21.333" height="21.333"/>
	</g>
</g>
<g>
	<g>
		<rect x="437.333" y="42.667" width="21.333" height="21.333"/>
	</g>
</g>
<g>
	<g>
		<path d="M170.667,170.667C76.41,170.667,0,247.077,0,341.333S76.41,512,170.667,512c94.21-0.112,170.555-76.456,170.667-170.667
			C341.333,247.077,264.923,170.667,170.667,170.667z M170.667,490.667c-82.475,0-149.333-66.859-149.333-149.333
			S88.192,192,170.667,192c82.438,0.088,149.245,66.895,149.333,149.333C320,423.808,253.141,490.667,170.667,490.667z"/>
	</g>
</g>
<g>
	<g>
		<path d="M448,160H298.667v21.333h138.667v21.333H330.667V224H448c5.891,0,10.667-4.776,10.667-10.667v-42.667
			C458.667,164.776,453.891,160,448,160z"/>
	</g>
</g>
<g>
	<g>
		<rect x="437.333" y="256" width="21.333" height="21.333"/>
	</g>
</g>
<g>
	<g>
		<rect x="394.667" y="256" width="21.333" height="21.333"/>
	</g>
</g>
<g>
	<g>
		<rect x="362.667" y="298.667" width="96" height="21.333"/>
	</g>
</g>
<g>
	<g>
		<rect x="362.667" y="341.333" width="96" height="21.333"/>
	</g>
</g>
<g>
	<g>
		<rect x="362.667" y="384" width="96" height="21.333"/>
	</g>
</g>
<g>
</g>
<g>
</g>
<g>
</g>
<g>
</g>
<g>
</g>
<g>
</g>
<g>
</g>
<g>
</g>
<g>
</g>
<g>
</g>
<g>
</g>
<g>
</g>
<g>
</g>
<g>
</g>
<g>
</g>
</svg>
