<?xml version="1.0" encoding="iso-8859-1"?>
<!-- Generator: Adobe Illustrator 19.0.0, SVG Export Plug-In . SVG Version: 6.00 Build 0)  -->
<svg version="1.1" id="Capa_1" xmlns="http://www.w3.org/2000/svg" xmlns:xlink="http://www.w3.org/1999/xlink" x="0px" y="0px"
	 viewBox="0 0 488.01 488.01" style="enable-background:new 0 0 488.01 488.01;" xml:space="preserve">
<g>
	<g>
		<path d="M384.009,440.01h-112v-69.656c93.701-22.343,159.864-106.016,160-202.344c0.254-65.529-30.624-127.286-83.2-166.4
			c-3.535-2.651-8.549-1.935-11.2,1.6c-2.651,3.535-1.935,8.549,1.6,11.2c5.176,3.88,10.056,8,14.752,12.328l-15.608,15.616
			c-0.487,0.548-0.893,1.162-1.208,1.824c-58.986-54.376-148.318-59.08-212.688-11.2c-0.8,0.405-1.523,0.946-2.136,1.6
			c-73.637,55.719-88.162,160.583-32.443,234.22c3.233,4.273,6.67,8.389,10.299,12.332c-0.662,0.315-1.276,0.721-1.824,1.208
			l-15.616,15.616c-4.304-4.696-8.448-9.6-12.336-14.752c-2.651-3.535-7.665-4.251-11.2-1.6c-3.535,2.651-4.251,7.665-1.6,11.2
			c39.114,52.581,100.875,83.463,166.408,83.208v64h-112c-4.418,0-8,3.582-8,8v32c0,4.418,3.582,8,8,8h272c4.418,0,8-3.582,8-8v-32
			C392.009,443.592,388.427,440.01,384.009,440.01z M262.665,44.45l12.8-19.264c60.23,21.707,100.424,78.802,100.544,142.824
			c0,2.704-0.264,5.336-0.408,8h-2.648l-13.744-27.576c-0.775-1.552-2.032-2.809-3.584-3.584l-16-8
			c-3.609-1.803-7.995-0.637-10.232,2.72l-15.56,23.344l-19.712,19.704l-31.072-12.432l-6.88-34.176l7.68-38.4
			c0.618-3.03-0.566-6.145-3.04-8l-27.384-20.536l4.912-14.736l20.2-6.744C260.224,47.034,261.676,45.927,262.665,44.45z
			 M74.153,192.45c-8.768-51.183,9.659-103.248,48.672-137.52v-0.032l5.344,26.712c0.605,3.029,2.9,5.439,5.896,6.192l27.344,6.832
			l6.232,24.928l-21.648,57.736l-27.928,6.984c-1.405,0.352-2.688,1.08-3.712,2.104l-19.36,19.36l-18.544-12.36
			C75.74,192.95,74.964,192.634,74.153,192.45z M79.353,214.522l12.216,8.144c3.173,2.116,7.399,1.697,10.096-1l22.4-22.4
			l29.856-7.464c2.551-0.636,4.626-2.484,5.552-4.944l24-64c0.568-1.521,0.66-3.178,0.264-4.752l-8-32
			c-0.715-2.866-2.951-5.105-5.816-5.824l-27.096-6.768l-5.96-29.84c35.54-25.205,80.287-33.703,122.592-23.28l0.032-0.032
			l-8.616,12.928l-21.392,7.136c-2.39,0.794-4.266,2.668-5.064,5.056l-8,24c-1.087,3.267,0.037,6.863,2.792,8.928l28,20.976
			l-7.04,35.024c-0.207,1.035-0.207,2.101,0,3.136l8,40c0.527,2.651,2.356,4.856,4.864,5.864l40,16
			c2.973,1.189,6.369,0.49,8.632-1.776l24-24c0.37-0.374,0.705-0.781,1-1.216l12.08-18.128l7.304,3.648l14.8,29.6
			c1.342,2.731,4.117,4.464,7.16,4.472h5.912c-13.182,82.825-91.012,139.282-173.837,126.099
			C143.526,309.108,96.844,269.054,79.353,214.522z M93.993,309.338l0.032-0.04l15.672-15.672c0.487-0.548,0.893-1.162,1.208-1.824
			c68.424,62.43,174.502,57.572,236.932-10.852c58.425-64.034,58.427-162.04,0.004-226.076c0.662-0.315,1.276-0.721,1.824-1.208
			l15.672-15.672c32.75,35.355,50.86,81.823,50.672,130.016c-0.123,105.987-86.013,191.877-192,192
			C175.816,360.196,129.349,342.086,93.993,309.338z M256.009,376.01v64h-16v-64H256.009z M376.009,472.01h-256v-16h256V472.01z"/>
	</g>
</g>
<g>
	<g>
		<path d="M215.601,269.482l-8-24c-0.232-0.673-0.546-1.316-0.936-1.912l-16-24c-1.433-2.151-3.817-3.477-6.4-3.56
			c-2.591-0.048-5.051,1.14-6.624,3.2l-24.032,32c-1.819,2.423-2.113,5.665-0.76,8.376l16,32c0.389,0.768,0.897,1.47,1.504,2.08
			l16,16c1.5,1.5,3.534,2.344,5.656,2.344c0.429,0.001,0.857-0.034,1.28-0.104c2.541-0.41,4.729-2.018,5.88-4.32l16-32
			C216.116,273.689,216.271,271.493,215.601,269.482z M189.817,290.506l-7.2-7.24l-13.208-26.4l14.248-19l9.104,13.688l6.608,19.84
			L189.817,290.506z"/>
	</g>
</g>
<g>
	<g>
		<path d="M245.468,274.354c-3.1-2.994-8.015-2.994-11.116,0l-8,8c-3.124,3.125-3.123,8.19,0.002,11.314
			c1.5,1.499,3.534,2.342,5.654,2.342c2.122,0,4.156-0.844,5.656-2.344l8-8C248.734,282.488,248.646,277.423,245.468,274.354z"/>
	</g>
</g>
<g>
</g>
<g>
</g>
<g>
</g>
<g>
</g>
<g>
</g>
<g>
</g>
<g>
</g>
<g>
</g>
<g>
</g>
<g>
</g>
<g>
</g>
<g>
</g>
<g>
</g>
<g>
</g>
<g>
</g>
</svg>
