<?xml version="1.0" encoding="iso-8859-1"?>
<!-- Generator: Adobe Illustrator 19.0.0, SVG Export Plug-In . SVG Version: 6.00 Build 0)  -->
<svg version="1.1" id="Capa_1" xmlns="http://www.w3.org/2000/svg" xmlns:xlink="http://www.w3.org/1999/xlink" x="0px" y="0px"
	 viewBox="0 0 512 512" style="enable-background:new 0 0 512 512;" xml:space="preserve">
<g>
	<g>
		<path d="M116.82,361.1c-0.13-0.64-0.32-1.27-0.57-1.88c-0.25-0.6-0.56-1.18-0.92-1.72c-0.36-0.55-0.78-1.06-1.24-1.52
			c-0.46-0.46-0.97-0.88-1.52-1.25c-0.54-0.36-1.12-0.66-1.73-0.91c-0.6-0.25-1.23-0.45-1.87-0.57c-1.29-0.26-2.62-0.26-3.91,0
			c-0.63,0.12-1.26,0.32-1.87,0.57c-0.6,0.25-1.18,0.55-1.72,0.91c-0.55,0.37-1.06,0.79-1.52,1.25c-0.46,0.46-0.88,0.97-1.25,1.52
			c-0.36,0.54-0.67,1.12-0.92,1.72c-0.25,0.61-0.44,1.24-0.57,1.88s-0.19,1.3-0.19,1.95c0,2.63,1.07,5.21,2.93,7.07
			s4.43,2.93,7.07,2.93c0.65,0,1.31-0.07,1.95-0.2c0.64-0.12,1.27-0.32,1.87-0.57c0.61-0.25,1.19-0.56,1.73-0.92
			c0.55-0.36,1.06-0.78,1.52-1.24c1.86-1.86,2.93-4.44,2.93-7.07C117.02,362.4,116.95,361.74,116.82,361.1z"/>
	</g>
</g>
<g>
	<g>
		<path d="M107.017,232.879c-5.523,0-10,4.477-10,10v85.17c0,5.523,4.477,10,10,10c5.523,0,10-4.477,10-10v-85.17
			C117.017,237.356,112.54,232.879,107.017,232.879z"/>
	</g>
</g>
<g>
	<g>
		<path d="M414.79,361.1c-0.13-0.64-0.32-1.27-0.57-1.88c-0.25-0.6-0.56-1.18-0.92-1.72c-0.37-0.55-0.78-1.06-1.25-1.52
			c-0.46-0.46-0.97-0.88-1.52-1.24c-0.54-0.37-1.12-0.67-1.72-0.92c-0.61-0.25-1.24-0.45-1.87-0.58c-1.29-0.26-2.62-0.26-3.91,0
			c-0.64,0.13-1.27,0.33-1.87,0.58c-0.61,0.25-1.19,0.55-1.73,0.92c-0.55,0.36-1.06,0.78-1.52,1.24c-0.46,0.46-0.88,0.97-1.24,1.52
			c-0.36,0.54-0.67,1.12-0.92,1.72c-0.25,0.61-0.44,1.24-0.57,1.88s-0.2,1.3-0.2,1.95s0.07,1.31,0.2,1.95s0.32,1.27,0.57,1.87
			c0.25,0.61,0.56,1.19,0.92,1.73c0.36,0.55,0.78,1.06,1.24,1.52c0.46,0.46,0.97,0.88,1.52,1.24c0.54,0.36,1.12,0.67,1.73,0.92
			c0.6,0.25,1.23,0.44,1.87,0.57s1.3,0.2,1.95,0.2c0.66,0,1.31-0.07,1.96-0.2c0.64-0.13,1.26-0.32,1.87-0.57
			c0.6-0.25,1.18-0.56,1.72-0.92c0.55-0.36,1.06-0.78,1.52-1.24c0.47-0.46,0.88-0.97,1.25-1.52c0.36-0.539,0.67-1.12,0.92-1.73
			c0.25-0.6,0.44-1.23,0.57-1.87s0.19-1.3,0.19-1.95S414.92,361.74,414.79,361.1z"/>
	</g>
</g>
<g>
	<g>
		<path d="M404.983,232.879c-5.523,0-10,4.477-10,10v85.17c0,5.523,4.477,10,10,10s10-4.477,10-10v-85.17
			C414.983,237.356,410.506,232.879,404.983,232.879z"/>
	</g>
</g>
<g>
	<g>
		<path d="M373.426,244.338c-0.839-15.873-13.751-28.652-29.409-29.092c-8.107-0.222-15.577,2.741-21.162,7.778
			c-5.581-5.036-12.726-7.791-20.287-7.791c-7.753,0-14.898,2.971-20.3,7.858c-5.399-4.887-12.543-7.858-20.293-7.858
			c-3.654,0-7.172,0.66-10.438,1.869v-61.546c0-0.537-0.014-1.06-0.041-1.603c-0.818-15.879-13.729-28.663-29.389-29.103
			c-3.409-0.095-6.704,0.39-9.798,1.352c1.131-6.226,1.725-12.637,1.725-19.184C214.034,48.008,166.026,0,107.017,0
			C48.008,0,0,48.008,0,107.017c0,59.009,48.008,107.017,107.017,107.017c34.003,0,64.35-15.943,83.967-40.743l0.084,112.642
			h-10.475c-23.192,0-42.06,18.868-42.06,42.06c0,7.27,2.828,14.092,7.951,19.199c5.127,5.128,11.943,7.953,19.191,7.953h19.151
			c6.481,0,7.915,1.403,12.663,6.053c1.28,1.253,2.706,2.65,4.369,4.122l18.232,23.661c4.964,6.442,11.244,11.677,18.411,15.391V431
			h-6c-5.523,0-10,4.477-10,10v61c0,5.523,4.477,10,10,10h114c5.523,0,10-4.477,10-10v-61c0-5.523-4.477-10-10-10h-2v-24.576
			c17.382-7.712,28.967-25.073,28.967-44.588V245.961C373.468,245.416,373.454,244.87,373.426,244.338z M107.017,194.034
			C59.036,194.034,20,154.999,20,107.017C20,59.036,59.036,20,107.017,20c47.981,0,87.017,39.036,87.017,87.017
			C194.034,154.999,154.999,194.034,107.017,194.034z M336.5,492h-94v-41h94V492z M353.467,361.835
			c0,13.097-8.837,24.549-21.49,27.848c-4.404,1.148-7.477,5.125-7.477,9.676V431h-66v-33.137c0-4.204-2.629-7.958-6.579-9.397
			c-6.347-2.311-11.876-6.353-15.989-11.692l-18.834-24.443c-0.417-0.541-0.888-1.037-1.405-1.482
			c-1.518-1.304-2.887-2.645-4.211-3.941c-5.631-5.514-12.013-11.763-26.656-11.763h-19.151c-1.905,0-3.698-0.744-5.06-2.105
			c-1.343-1.339-2.083-3.131-2.083-5.047c0-12.164,9.896-22.06,22.06-22.06h20.482c2.653,0,5.198-1.055,7.074-2.932
			c1.875-1.877,2.928-4.422,2.926-7.076l-0.103-138.716c0-0.144-0.003-0.286-0.009-0.428v-1.997
			c0.001-0.024,0.002-0.049,0.003-0.074c0.201-5.602,4.921-10.03,10.576-9.869c5.311,0.149,9.695,4.603,9.98,10.132
			c0.01,0.195,0.016,0.386,0.016,0.582v87.89c0,0.01,0.002,0.02,0.002,0.03v18.542c0,5.523,4.477,10,10,10s10-4.477,10-10V245.97
			c0.081-0.406,0.147-0.817,0.178-1.24c0.391-5.326,4.897-9.498,10.258-9.498c5.305,0,9.765,4.094,10.229,9.346v17.438
			c0,5.523,4.477,10,10,10s10-4.477,10-10V245.6c0.046-0.286,0.084-0.575,0.106-0.869c0.391-5.326,4.896-9.498,10.258-9.498
			c2.749,0,5.338,1.073,7.273,3.004c1.719,1.723,2.767,3.985,2.971,6.378v17.484c0,5.523,4.477,10,10,10s10-4.477,10-10v-16.537
			c0.043-0.276,0.081-0.553,0.102-0.836c0.398-5.471,5.022-9.662,10.549-9.488c5.311,0.149,9.7,4.611,9.99,10.157
			c0,0.003,0,0.007,0,0.011c0.01,0.182,0.014,0.368,0.014,0.555V361.835z"/>
	</g>
</g>
<g>
	<g>
		<path d="M404.983,0c-59.009,0-107.017,48.008-107.017,107.017c0,59.009,48.008,107.017,107.017,107.017
			c59.009,0,107.017-48.008,107.017-107.017C512,48.008,463.992,0,404.983,0z M404.983,194.034
			c-47.981,0-87.017-39.036-87.017-87.017c0-47.981,39.036-87.017,87.017-87.017C452.964,20,492,59.036,492,107.017
			C492,154.999,452.964,194.034,404.983,194.034z"/>
	</g>
</g>
<g>
	<g>
		<path d="M370.983,80h-14c-5.523,0-10,4.477-10,10s4.477,10,10,10h14c5.523,0,10-4.477,10-10S376.506,80,370.983,80z"/>
	</g>
</g>
<g>
	<g>
		<path d="M452.983,80h-14c-5.523,0-10,4.477-10,10s4.477,10,10,10h14c5.523,0,10-4.477,10-10S458.506,80,452.983,80z"/>
	</g>
</g>
<g>
	<g>
		<path d="M447.688,147.222c-9.053-13.659-24.228-21.814-40.596-21.814h-4.219c-16.367,0-31.543,8.155-40.596,21.814
			c-3.051,4.604-1.792,10.809,2.811,13.86c4.604,3.052,10.81,1.794,13.86-2.811c5.338-8.054,14.282-12.863,23.925-12.863h4.219
			c9.643,0,18.587,4.809,23.925,12.863c1.924,2.904,5.104,4.477,8.345,4.477c1.897,0,3.815-0.539,5.515-1.666
			C449.48,158.031,450.739,151.826,447.688,147.222z"/>
	</g>
</g>
<g>
	<g>
		<path d="M73.017,80h-14c-5.523,0-10,4.477-10,10s4.477,10,10,10h14c5.523,0,10-4.477,10-10S78.54,80,73.017,80z"/>
	</g>
</g>
<g>
	<g>
		<path d="M155.017,80h-14c-5.523,0-10,4.477-10,10s4.477,10,10,10h14c5.523,0,10-4.477,10-10S160.54,80,155.017,80z"/>
	</g>
</g>
<g>
	<g>
		<path d="M146.911,127.073c-4.604-3.052-10.809-1.792-13.86,2.811c-5.338,8.054-14.282,12.863-23.925,12.863h-4.219
			c-9.643,0-18.587-4.809-23.925-12.863c-3.05-4.603-9.256-5.861-13.86-2.811c-4.604,3.051-5.862,9.256-2.811,13.86
			c9.052,13.659,24.228,21.814,40.596,21.814h4.219c16.368,0,31.543-8.155,40.596-21.814
			C152.773,136.329,151.515,130.124,146.911,127.073z"/>
	</g>
</g>
<g>
</g>
<g>
</g>
<g>
</g>
<g>
</g>
<g>
</g>
<g>
</g>
<g>
</g>
<g>
</g>
<g>
</g>
<g>
</g>
<g>
</g>
<g>
</g>
<g>
</g>
<g>
</g>
<g>
</g>
</svg>
