<?xml version="1.0" encoding="utf-8"?>
<!-- Generator: Adobe Illustrator 22.0.0, SVG Export Plug-In . SVG Version: 6.00 Build 0)  -->
<svg version="1.1" id="Layer_1" xmlns="http://www.w3.org/2000/svg" xmlns:xlink="http://www.w3.org/1999/xlink" x="0px" y="0px"
	 viewBox="0 0 512 512" style="enable-background:new 0 0 512 512;" xml:space="preserve">
<path d="M501.8,188.5H495C488.3,154.7,454.2,95.2,439,70c7.1-4.9,11.7-13,11.7-22.3c0-14.9-12.1-27-27-27c-13,0-23.9,9.2-26.5,21.5
	l-106.5,24c-6.5-12.3-19.4-20.7-34.3-20.7c-20.6,0-37.4,16.1-38.6,36.4l-107.8,23.2C105.1,98.4,97.2,94,88.2,94
	c-14.9,0-27,12.1-27,27c0,9.2,4.7,17.4,11.8,22.3C57.8,168.5,23.7,227.9,17,261.7h-6.8c-5.6,0-10.2,4.6-10.2,10.2
	c0,48.7,39.6,88.2,88.2,88.2c48.7,0,88.2-39.6,88.2-88.2c0-5.6-4.6-10.2-10.2-10.2h-6.8c-6.7-33.8-40.8-93.3-55.9-118.5
	c6.1-4.2,10.4-10.8,11.5-18.4l107.1-23.1c1.9,3.7,4.3,7,7.2,9.8v284.9h-25.9c-5.6,0-10.2,4.6-10.2,10.2v25.9h-27
	c-5.6,0-10.2,4.6-10.2,10.2v38.2c0,5.6,4.6,10.2,10.2,10.2h180.5c5.6,0,10.2-4.6,10.2-10.2v-38.2c0-5.6-4.6-10.2-10.2-10.2h-27
	v-25.9c0-5.6-4.6-10.2-10.2-10.2h-25.9V111.7c6.7-6.6,11-15.6,11.5-25.6L401,62.3c2,3,4.5,5.7,7.5,7.7
	c-15.1,25.2-49.3,84.7-55.9,118.5h-6.8c-5.6,0-10.2,4.6-10.2,10.2c0,48.7,39.6,88.2,88.2,88.2s88.2-39.6,88.2-88.2
	C512,193,507.4,188.5,501.8,188.5z M88.2,114.4c3.7,0,6.6,3,6.6,6.6s-3,6.6-6.6,6.6c-3.7,0-6.6-3-6.6-6.6S84.6,114.4,88.2,114.4z
	 M88.2,339.8c-33.9,0-62.1-25.1-67.1-57.6h134.2C150.4,314.7,122.2,339.8,88.2,339.8z M138.7,261.7H37.8
	C44,236.8,68,191.5,88.2,157.5C105.5,186.6,132.1,235.1,138.7,261.7z M256.5,65.9c10.1,0,18.3,8.2,18.3,18.3s-8.2,18.3-18.3,18.3
	c-10.1,0-18.3-8.2-18.3-18.3S246.4,65.9,256.5,65.9z M263.3,122.3v274.3h-13.6V122.3c2.2,0.4,4.5,0.6,6.8,0.6
	C258.9,122.9,261.1,122.6,263.3,122.3z M336.6,453.1v17.8H176.5v-17.8H336.6z M299.4,417v15.7h-85.8V417H299.4z M423.8,41.1
	c3.7,0,6.6,3,6.6,6.6c0,3.7-3,6.6-6.6,6.6c-3.7,0-6.6-3-6.6-6.6C417.1,44.1,420.1,41.1,423.8,41.1z M423.7,84.2
	c17.3,29.1,43.9,77.7,50.5,104.3H373.3C379.5,163.6,403.5,118.2,423.7,84.2z M423.8,266.5c-33.9,0-62.1-25.1-67.1-57.6h134.2
	C485.9,241.5,457.7,266.5,423.8,266.5z"/>
</svg>
