<?xml version="1.0" encoding="utf-8"?>
<!-- Generator: Adobe Illustrator 22.0.0, SVG Export Plug-In . SVG Version: 6.00 Build 0)  -->
<svg version="1.1" id="Capa_1" xmlns="http://www.w3.org/2000/svg" xmlns:xlink="http://www.w3.org/1999/xlink" x="0px" y="0px"
	 viewBox="0 0 258.6 512" style="enable-background:new 0 0 258.6 512;" xml:space="preserve">
<path d="M110.6,90.2c1.9,0,3.8-0.7,5.3-2.2l46.4-46.4c2.9-2.9,2.9-7.7,0-10.6c-2.9-2.9-7.7-2.9-10.6,0l-41.1,41.1L93.4,54.9
	c-2.9-2.9-7.7-2.9-10.6,0c-2.9,2.9-2.9,7.7,0,10.6L105.3,88C106.8,89.4,108.7,90.2,110.6,90.2z"/>
<path d="M246.4,446.4h-6.8V257.1c0-14.8-12-26.8-26.8-26.8h-0.1c-4.2,0-8.2,1-11.8,2.7v-1.5c0-17-13.8-30.8-30.8-30.8
	c-5.7,0-11.1,1.5-15.9,4.4c-1.3-15.8-14.6-28.3-30.8-28.3h-1.9c-5.8,0-11.2,1.6-15.9,4.4v-60.1h99.7c10.2,0,18.4-8.3,18.4-18.4V19.2
	c0-10.2-8.3-18.4-18.4-18.4H39.9C29.7,0.7,21.5,9,21.5,19.2v83.5c0,8.3,5.6,15.4,13.2,17.7v34.2c0,0,0,0,0,0v109.9h-1.5
	c-16.7,0-30.3,13.6-30.3,30.3v17.7c0,35.9,17,70,45.3,91.3c19.5,14.6,30.2,28.3,31,39.7v2.9h-5.3c-4.1,0-7.5,3.4-7.5,7.5v49.9
	c0,4.1,3.4,7.5,7.5,7.5h143.3c0,0,0,0,0,0h29.2c4.1,0,7.5-3.4,7.5-7.5v-49.9C253.9,449.8,250.5,446.4,246.4,446.4z M36.5,19.2
	c0-1.9,1.5-3.4,3.4-3.4h165.4c1.9,0,3.4,1.5,3.4,3.4v83.5c0,1.9-1.5,3.4-3.4,3.4h-99.8c-1.5-18.2-16.8-32.5-35.3-32.5
	c-9.5,0-18.4,3.7-25.1,10.4c-4,4-6.8,8.7-8.6,13.8V19.2z M57.1,391.8c-24.6-18.5-39.3-48.1-39.3-79.3v-17.7
	c0-8.5,6.9-15.3,15.3-15.3h1.5v39c0,4.1,3.4,7.5,7.5,7.5c4.1,0,7.5-3.4,7.5-7.5V272c0,0,0-0.1,0-0.1V150.1c0,0,0,0,0,0v-41
	c0-5.5,2.1-10.6,6-14.5c3.9-3.9,9-6,14.5-6c11.3,0,20.5,9.2,20.5,20.5v98.6c0,4.1,3.4,7.5,7.5,7.5c4.1,0,7.5-3.4,7.5-7.5
	c0-8.8,7.1-15.9,15.9-15.9h1.9c8.8,0,15.9,7.1,15.9,15.9v23.8c0,4.1,3.4,7.5,7.5,7.5c4.1,0,7.5-3.4,7.5-7.5c0-4.2,1.6-8.2,4.6-11.2
	c3-3,6.9-4.6,11.1-4.6c8.7,0,15.8,7.1,15.8,15.8v16c0,3.3,2.2,6.2,5.4,7.2l2.2,0.6c3.4,1,7.1-0.5,8.8-3.7c2-3.9,6.1-6.4,10.5-6.4
	h0.1c6.5,0,11.8,5.3,11.8,11.8v189.3H94.2v-3.1c0-0.2,0-0.3,0-0.5C93.1,426.6,80.7,409.4,57.1,391.8z M238.9,496.3h-20.4
	c-0.5-0.1-1-0.1-1.6-0.1c-0.3,0-0.7,0-1,0.1H211c-0.5-0.1-1.1-0.1-1.6-0.1c-0.3,0-0.7,0.1-1,0.1H81.4v-34.9h157.5V496.3z"/>
<path d="M86.9,475v4.5c0,4.1,3.4,7.5,7.5,7.5s7.5-3.4,7.5-7.5V475c0-4.1-3.4-7.5-7.5-7.5S86.9,470.8,86.9,475z"/>
</svg>
