<?xml version="1.0" encoding="utf-8"?>
<!-- Generator: Adobe Illustrator 22.0.0, SVG Export Plug-In . SVG Version: 6.00 Build 0)  -->
<svg version="1.1" id="Capa_1" xmlns="http://www.w3.org/2000/svg" xmlns:xlink="http://www.w3.org/1999/xlink" x="0px" y="0px"
	 viewBox="0 0 80.1 80.1" style="enable-background:new 0 0 80.1 80.1;" xml:space="preserve">
<g>
	<g>
		<path d="M60.1,10.3c4.3,0,7.8,3.5,7.8,7.8c0,4.3-3.5,7.8-7.8,7.8c-0.5,0-1,0-1.4-0.1c-0.9-3.8-3-7.1-6-9.6
			C53.5,12.8,56.5,10.3,60.1,10.3 M20,10.4c3.9,0,7.1,2.9,7.7,6.6c-2.4,2.3-4.1,5.2-4.9,8.4c-0.9,0.3-1.8,0.5-2.7,0.5
			c-4.3,0-7.8-3.5-7.8-7.8C12.3,13.8,15.8,10.4,20,10.4 M40.7,22.5c4.3,0,7.8,3.5,7.8,7.8c0,4.3-3.5,7.8-7.8,7.8
			c-4.3,0-7.8-3.5-7.8-7.8C32.9,26,36.4,22.5,40.7,22.5 M65.1,34.7c6.1,0,11,5,11,11v9.6c-1.6,0.6-4.5,1.5-8.6,2
			c-0.2-7.5-4.3-14.3-10.6-18.1c0.8-1.4,1.4-2.9,1.7-4.5H65.1 M22.6,34.7c0.4,1.6,1,3.1,1.7,4.5c-6.2,3.8-10.3,10.5-10.6,18
			c-3.2-0.4-6.5-1.1-9.8-2v-9.4c0-6.1,5-11,11-11H22.6 M45.6,46.8c2.9,0,5.7,1.2,7.8,3.2c2.1,2.1,3.2,4.9,3.2,7.8v9.6
			c-2.3,0.8-7.4,2.4-14.7,2.4c-5.6,0-11.4-0.9-17.3-2.5v-9.4c0-6.1,5-11,11-11H45.6 M60.1,6.3c-6.4,0-11.6,5.2-11.7,11.6
			c3.7,2.3,6.3,6.3,6.8,10.8c1.5,0.7,3.2,1.1,5,1.1c6.5,0,11.8-5.3,11.8-11.8C71.8,11.6,66.6,6.3,60.1,6.3L60.1,6.3z M20,6.4
			c-6.5,0-11.8,5.3-11.8,11.8c0,6.5,5.3,11.8,11.8,11.8c2.3,0,4.4-0.7,6.3-1.8c0.6-3.8,2.6-7,5.5-9.3c0-0.2,0-0.4,0-0.7
			C31.8,11.6,26.5,6.4,20,6.4L20,6.4z M40.7,18.5c-6.5,0-11.8,5.3-11.8,11.8S34.2,42,40.7,42c6.5,0,11.8-5.3,11.8-11.8
			S47.1,18.5,40.7,18.5L40.7,18.5z M65.1,30.7h-9.9c-0.1,4-1.8,7.5-4.5,10.1c7.4,2.2,12.8,9,12.8,17.1v3.8
			c9.8-0.4,15.4-3.1,15.8-3.3l0.8-0.4h0.1V45.7C80.1,37.4,73.4,30.7,65.1,30.7L65.1,30.7z M25,30.7H15c-8.3,0-15,6.8-15,15v12.2
			l0,0.2l0.8,0.3c6.4,2,12,2.9,16.9,3.2v-3.7c0-8.1,5.4-14.9,12.8-17.1c-2.7-2.6-4.3-6.1-4.5-10C25.8,30.7,25.4,30.7,25,30.7
			L25,30.7z M45.6,42.8h-10c-8.3,0-15,6.8-15,15V70l0,0.2l0.8,0.3c7.9,2.5,14.8,3.3,20.5,3.3c11.1,0,17.5-3.2,17.9-3.4l0.8-0.4h0.1
			V57.8C60.7,49.5,53.9,42.8,45.6,42.8L45.6,42.8z"/>
	</g>
</g>
</svg>
