<svg xmlns="http://www.w3.org/2000/svg" width="599" height="800" viewBox="0 0 599 800">
  <metadata><?xpacket begin="﻿" id="W5M0MpCehiHzreSzNTczkc9d"?>
<x:xmpmeta xmlns:x="adobe:ns:meta/" x:xmptk="Adobe XMP Core 5.6-c138 79.159824, 2016/09/14-01:09:01        ">
   <rdf:RDF xmlns:rdf="http://www.w3.org/1999/02/22-rdf-syntax-ns#">
      <rdf:Description rdf:about=""/>
   </rdf:RDF>
</x:xmpmeta>
                                                                                                    
                                                                                                    
                                                                                                    
                                                                                                    
                                                                                                    
                                                                                                    
                                                                                                    
                                                                                                    
                                                                                                    
                                                                                                    
                                                                                                    
                                                                                                    
                                                                                                    
                                                                                                    
                                                                                                    
                                                                                                    
                                                                                                    
                                                                                                    
                                                                                                    
                                                                                                    
                           
<?xpacket end="w"?></metadata>
<defs>
    <style>
      .cls-1 {
        fill-rule: evenodd;
      }
    </style>
  </defs>
  <path class="cls-1" d="M555.729,348.633H543.958V244.408C543.958,109.693,434.37,0,299.417,0,164.63,0,54.877,109.528,54.877,244.408a22.381,22.381,0,0,0,44.763,0c0-110.025,89.527-199.669,199.777-199.669,110.085,0,199.777,89.478,199.777,199.669V348.633H43.272A43.291,43.291,0,0,0,0,391.881V670.423C0,741.839,58.193,800,129.648,800h339.7C540.808,800,599,741.839,599,670.423V391.881A43.29,43.29,0,0,0,555.729,348.633Zm-1.492,321.79a84.919,84.919,0,0,1-84.885,84.838H129.814A84.919,84.919,0,0,1,44.93,670.423V393.372H554.237V670.423h0ZM299.583,661.31a83.679,83.679,0,1,0-83.724-83.679A83.788,83.788,0,0,0,299.583,661.31Zm0-122.785a39.023,39.023,0,1,1-38.96,39.106A39.012,39.012,0,0,1,299.583,538.525Z"/>
</svg>
